<svg width="173" height="97" viewBox="0 0 173 97" fill="none" xmlns="http://www.w3.org/2000/svg">
<path d="M0.884827 0.685112H16.4582V16.3215H0.884827V0.685112Z" fill="url(#paint0_linear)"/>
<path d="M26.8405 0.685112H42.4139V16.3215H26.8405V0.685112Z" fill="url(#paint1_linear)"/>
<path d="M52.7962 0.685112H68.3696V16.3215H52.7962V0.685112Z" fill="url(#paint2_linear)"/>
<path d="M78.7519 0.685112H94.3253V16.3215H78.7519V0.685112Z" fill="url(#paint3_linear)"/>
<path d="M104.708 0.685112H120.281V16.3215H104.708V0.685112Z" fill="url(#paint4_linear)"/>
<path d="M130.663 0.685112H146.237V16.3215H130.663V0.685112Z" fill="url(#paint5_linear)"/>
<path d="M156.619 0.685112H172.192V16.3215H156.619V0.685112Z" fill="url(#paint6_linear)"/>
<path d="M0.884827 26.7458H16.4582V42.3823H0.884827V26.7458Z" fill="url(#paint7_linear)"/>
<path d="M26.8405 26.7458H42.4139V42.3823H26.8405V26.7458Z" fill="url(#paint8_linear)"/>
<path d="M52.7962 26.7458H68.3696V42.3823H52.7962V26.7458Z" fill="url(#paint9_linear)"/>
<path d="M78.7519 26.7458H94.3253V42.3823H78.7519V26.7458Z" fill="url(#paint10_linear)"/>
<path d="M104.708 26.7458H120.281V42.3823H104.708V26.7458Z" fill="url(#paint11_linear)"/>
<path d="M130.663 26.7458H146.237V42.3823H130.663V26.7458Z" fill="url(#paint12_linear)"/>
<path d="M156.619 26.7458H172.192V42.3823H156.619V26.7458Z" fill="url(#paint13_linear)"/>
<path d="M0.884827 53.458H16.4582V69.0945H0.884827V53.458Z" fill="url(#paint14_linear)"/>
<path d="M26.8405 53.458H42.4139V69.0945H26.8405V53.458Z" fill="url(#paint15_linear)"/>
<path d="M52.7962 53.458H68.3696V69.0945H52.7962V53.458Z" fill="url(#paint16_linear)"/>
<path d="M78.7519 53.458H94.3253V69.0945H78.7519V53.458Z" fill="url(#paint17_linear)"/>
<path d="M104.708 53.458H120.281V69.0945H104.708V53.458Z" fill="url(#paint18_linear)"/>
<path d="M130.663 53.458H146.237V69.0945H130.663V53.458Z" fill="url(#paint19_linear)"/>
<path d="M156.619 53.458H172.192V69.0945H156.619V53.458Z" fill="url(#paint20_linear)"/>
<path d="M0.884827 80.9932H16.4582V96.6297H0.884827V80.9932Z" fill="url(#paint21_linear)"/>
<path d="M26.8405 80.9932H42.4139V96.6297H26.8405V80.9932Z" fill="url(#paint22_linear)"/>
<path d="M52.7962 80.9932H68.3696V96.6297H52.7962V80.9932Z" fill="url(#paint23_linear)"/>
<defs>
<linearGradient id="paint0_linear" x1="0.884827" y1="0.685112" x2="198.439" y2="93.8864" gradientUnits="userSpaceOnUse">
<stop stop-color="#005400"/>
<stop offset="1" stop-color="#8BC34A"/>
</linearGradient>
<linearGradient id="paint1_linear" x1="0.884827" y1="0.685112" x2="198.439" y2="93.8864" gradientUnits="userSpaceOnUse">
<stop stop-color="#005400"/>
<stop offset="1" stop-color="#8BC34A"/>
</linearGradient>
<linearGradient id="paint2_linear" x1="0.884827" y1="0.685112" x2="198.439" y2="93.8864" gradientUnits="userSpaceOnUse">
<stop stop-color="#005400"/>
<stop offset="1" stop-color="#8BC34A"/>
</linearGradient>
<linearGradient id="paint3_linear" x1="0.884827" y1="0.685112" x2="198.439" y2="93.8864" gradientUnits="userSpaceOnUse">
<stop stop-color="#005400"/>
<stop offset="1" stop-color="#8BC34A"/>
</linearGradient>
<linearGradient id="paint4_linear" x1="0.884827" y1="0.685112" x2="198.439" y2="93.8864" gradientUnits="userSpaceOnUse">
<stop stop-color="#005400"/>
<stop offset="1" stop-color="#8BC34A"/>
</linearGradient>
<linearGradient id="paint5_linear" x1="0.884827" y1="0.685112" x2="198.439" y2="93.8864" gradientUnits="userSpaceOnUse">
<stop stop-color="#005400"/>
<stop offset="1" stop-color="#8BC34A"/>
</linearGradient>
<linearGradient id="paint6_linear" x1="0.884827" y1="0.685112" x2="198.439" y2="93.8864" gradientUnits="userSpaceOnUse">
<stop stop-color="#005400"/>
<stop offset="1" stop-color="#8BC34A"/>
</linearGradient>
<linearGradient id="paint7_linear" x1="0.884827" y1="0.685112" x2="198.439" y2="93.8864" gradientUnits="userSpaceOnUse">
<stop stop-color="#005400"/>
<stop offset="1" stop-color="#8BC34A"/>
</linearGradient>
<linearGradient id="paint8_linear" x1="0.884827" y1="0.685112" x2="198.439" y2="93.8864" gradientUnits="userSpaceOnUse">
<stop stop-color="#005400"/>
<stop offset="1" stop-color="#8BC34A"/>
</linearGradient>
<linearGradient id="paint9_linear" x1="0.884827" y1="0.685112" x2="198.439" y2="93.8864" gradientUnits="userSpaceOnUse">
<stop stop-color="#005400"/>
<stop offset="1" stop-color="#8BC34A"/>
</linearGradient>
<linearGradient id="paint10_linear" x1="0.884827" y1="0.685112" x2="198.439" y2="93.8864" gradientUnits="userSpaceOnUse">
<stop stop-color="#005400"/>
<stop offset="1" stop-color="#8BC34A"/>
</linearGradient>
<linearGradient id="paint11_linear" x1="0.884827" y1="0.685112" x2="198.439" y2="93.8864" gradientUnits="userSpaceOnUse">
<stop stop-color="#005400"/>
<stop offset="1" stop-color="#8BC34A"/>
</linearGradient>
<linearGradient id="paint12_linear" x1="0.884827" y1="0.685112" x2="198.439" y2="93.8864" gradientUnits="userSpaceOnUse">
<stop stop-color="#005400"/>
<stop offset="1" stop-color="#8BC34A"/>
</linearGradient>
<linearGradient id="paint13_linear" x1="0.884827" y1="0.685112" x2="198.439" y2="93.8864" gradientUnits="userSpaceOnUse">
<stop stop-color="#005400"/>
<stop offset="1" stop-color="#8BC34A"/>
</linearGradient>
<linearGradient id="paint14_linear" x1="0.884827" y1="0.685112" x2="198.439" y2="93.8864" gradientUnits="userSpaceOnUse">
<stop stop-color="#005400"/>
<stop offset="1" stop-color="#8BC34A"/>
</linearGradient>
<linearGradient id="paint15_linear" x1="0.884827" y1="0.685112" x2="198.439" y2="93.8864" gradientUnits="userSpaceOnUse">
<stop stop-color="#005400"/>
<stop offset="1" stop-color="#8BC34A"/>
</linearGradient>
<linearGradient id="paint16_linear" x1="0.884827" y1="0.685112" x2="198.439" y2="93.8864" gradientUnits="userSpaceOnUse">
<stop stop-color="#005400"/>
<stop offset="1" stop-color="#8BC34A"/>
</linearGradient>
<linearGradient id="paint17_linear" x1="0.884827" y1="0.685112" x2="198.439" y2="93.8864" gradientUnits="userSpaceOnUse">
<stop stop-color="#005400"/>
<stop offset="1" stop-color="#8BC34A"/>
</linearGradient>
<linearGradient id="paint18_linear" x1="0.884827" y1="0.685112" x2="198.439" y2="93.8864" gradientUnits="userSpaceOnUse">
<stop stop-color="#005400"/>
<stop offset="1" stop-color="#8BC34A"/>
</linearGradient>
<linearGradient id="paint19_linear" x1="0.884827" y1="0.685112" x2="198.439" y2="93.8864" gradientUnits="userSpaceOnUse">
<stop stop-color="#005400"/>
<stop offset="1" stop-color="#8BC34A"/>
</linearGradient>
<linearGradient id="paint20_linear" x1="0.884827" y1="0.685112" x2="198.439" y2="93.8864" gradientUnits="userSpaceOnUse">
<stop stop-color="#005400"/>
<stop offset="1" stop-color="#8BC34A"/>
</linearGradient>
<linearGradient id="paint21_linear" x1="0.884827" y1="0.685112" x2="198.439" y2="93.8864" gradientUnits="userSpaceOnUse">
<stop stop-color="#005400"/>
<stop offset="1" stop-color="#8BC34A"/>
</linearGradient>
<linearGradient id="paint22_linear" x1="0.884827" y1="0.685112" x2="198.439" y2="93.8864" gradientUnits="userSpaceOnUse">
<stop stop-color="#005400"/>
<stop offset="1" stop-color="#8BC34A"/>
</linearGradient>
<linearGradient id="paint23_linear" x1="0.884827" y1="0.685112" x2="198.439" y2="93.8864" gradientUnits="userSpaceOnUse">
<stop stop-color="#005400"/>
<stop offset="1" stop-color="#8BC34A"/>
</linearGradient>
</defs>
</svg>
