<?xml version="1.0" encoding="UTF-8" standalone="no"?>
<!DOCTYPE svg PUBLIC "-//W3C//DTD SVG 1.1//EN" "http://www.w3.org/Graphics/SVG/1.1/DTD/svg11.dtd">
<!-- Generated by graphviz version 2.40.1 (20161225.0304)
 -->
<!-- Title: %0 Pages: 1 -->
<svg width="641pt" height="431pt" viewBox="0.00 0.00 641.50 431.20" xmlns="http://www.w3.org/2000/svg" xmlns:xlink="http://www.w3.org/1999/xlink">
<g id="graph0" class="graph" transform="scale(1 1) rotate(0) translate(4 427.2)">
<title>%0</title>
<polygon fill="#ffffff" stroke="transparent" points="-4,4 -4,-427.2 637.4966,-427.2 637.4966,4 -4,4"/>
<!-- a -->
<g id="node1" class="node">
<title>a</title>
<path fill="none" stroke="#0000ff" d="M187.7455,-423.1003C187.7455,-423.1003 11.7511,-423.1003 11.7511,-423.1003 5.7511,-423.1003 -.2489,-417.1003 -.2489,-411.1003 -.2489,-411.1003 -.2489,-374.4997 -.2489,-374.4997 -.2489,-368.4997 5.7511,-362.4997 11.7511,-362.4997 11.7511,-362.4997 187.7455,-362.4997 187.7455,-362.4997 193.7455,-362.4997 199.7455,-368.4997 199.7455,-374.4997 199.7455,-374.4997 199.7455,-411.1003 199.7455,-411.1003 199.7455,-417.1003 193.7455,-423.1003 187.7455,-423.1003"/>
<text text-anchor="middle" x="99.7483" y="-388.6" font-family="Times,serif" font-size="14.00" fill="#000000">StreamSuppliers$OfIterator</text>
</g>
<!-- f -->
<g id="node6" class="node">
<title>f</title>
<path fill="none" stroke="#ff0000" d="M187.4504,-326.3003C187.4504,-326.3003 56.0462,-326.3003 56.0462,-326.3003 50.0462,-326.3003 44.0462,-320.3003 44.0462,-314.3003 44.0462,-314.3003 44.0462,-277.6997 44.0462,-277.6997 44.0462,-271.6997 50.0462,-265.6997 56.0462,-265.6997 56.0462,-265.6997 187.4504,-265.6997 187.4504,-265.6997 193.4504,-265.6997 199.4504,-271.6997 199.4504,-277.6997 199.4504,-277.6997 199.4504,-314.3003 199.4504,-314.3003 199.4504,-320.3003 193.4504,-326.3003 187.4504,-326.3003"/>
<text text-anchor="middle" x="121.7483" y="-291.8" font-family="Times,serif" font-size="14.00" fill="#000000">StreamUnion$Input</text>
</g>
<!-- a&#45;&gt;f -->
<g id="edge2" class="edge">
<title>a-&gt;f</title>
<path fill="none" stroke="#000000" d="M106.6489,-362.4375C108.5147,-354.228 110.5641,-345.2106 112.5349,-336.5392"/>
<polygon fill="#000000" stroke="#000000" points="115.9932,-337.1147 114.7966,-326.5876 109.1673,-335.5633 115.9932,-337.1147"/>
</g>
<!-- b -->
<g id="node2" class="node">
<title>b</title>
<path fill="none" stroke="#0000ff" d="M621.7455,-423.1003C621.7455,-423.1003 445.7511,-423.1003 445.7511,-423.1003 439.7511,-423.1003 433.7511,-417.1003 433.7511,-411.1003 433.7511,-411.1003 433.7511,-374.4997 433.7511,-374.4997 433.7511,-368.4997 439.7511,-362.4997 445.7511,-362.4997 445.7511,-362.4997 621.7455,-362.4997 621.7455,-362.4997 627.7455,-362.4997 633.7455,-368.4997 633.7455,-374.4997 633.7455,-374.4997 633.7455,-411.1003 633.7455,-411.1003 633.7455,-417.1003 627.7455,-423.1003 621.7455,-423.1003"/>
<text text-anchor="middle" x="533.7483" y="-388.6" font-family="Times,serif" font-size="14.00" fill="#000000">StreamSuppliers$OfIterator</text>
</g>
<!-- h -->
<g id="node8" class="node">
<title>h</title>
<path fill="none" stroke="#ff0000" d="M577.4504,-326.3003C577.4504,-326.3003 446.0462,-326.3003 446.0462,-326.3003 440.0462,-326.3003 434.0462,-320.3003 434.0462,-314.3003 434.0462,-314.3003 434.0462,-277.6997 434.0462,-277.6997 434.0462,-271.6997 440.0462,-265.6997 446.0462,-265.6997 446.0462,-265.6997 577.4504,-265.6997 577.4504,-265.6997 583.4504,-265.6997 589.4504,-271.6997 589.4504,-277.6997 589.4504,-277.6997 589.4504,-314.3003 589.4504,-314.3003 589.4504,-320.3003 583.4504,-326.3003 577.4504,-326.3003"/>
<text text-anchor="middle" x="511.7483" y="-291.8" font-family="Times,serif" font-size="14.00" fill="#000000">StreamUnion$Input</text>
</g>
<!-- b&#45;&gt;h -->
<g id="edge3" class="edge">
<title>b-&gt;h</title>
<path fill="none" stroke="#000000" d="M526.8477,-362.4375C524.9819,-354.228 522.9325,-345.2106 520.9617,-336.5392"/>
<polygon fill="#000000" stroke="#000000" points="524.3293,-335.5633 518.7,-326.5876 517.5034,-337.1147 524.3293,-335.5633"/>
</g>
<!-- c -->
<g id="node3" class="node">
<title>c</title>
<path fill="none" stroke="#0000ff" d="M386.7875,-157.5003C386.7875,-157.5003 246.7091,-157.5003 246.7091,-157.5003 240.7091,-157.5003 234.7091,-151.5003 234.7091,-145.5003 234.7091,-145.5003 234.7091,-108.8997 234.7091,-108.8997 234.7091,-102.8997 240.7091,-96.8997 246.7091,-96.8997 246.7091,-96.8997 386.7875,-96.8997 386.7875,-96.8997 392.7875,-96.8997 398.7875,-102.8997 398.7875,-108.8997 398.7875,-108.8997 398.7875,-145.5003 398.7875,-145.5003 398.7875,-151.5003 392.7875,-157.5003 386.7875,-157.5003"/>
<text text-anchor="middle" x="316.7483" y="-123" font-family="Times,serif" font-size="14.00" fill="#000000">StreamUnion$Output</text>
</g>
<!-- e -->
<g id="node5" class="node">
<title>e</title>
<path fill="none" stroke="#ff0000" d="M393.7805,-60.7003C393.7805,-60.7003 239.7161,-60.7003 239.7161,-60.7003 233.7161,-60.7003 227.7161,-54.7003 227.7161,-48.7003 227.7161,-48.7003 227.7161,-12.0997 227.7161,-12.0997 227.7161,-6.0997 233.7161,-.0997 239.7161,-.0997 239.7161,-.0997 393.7805,-.0997 393.7805,-.0997 399.7805,-.0997 405.7805,-6.0997 405.7805,-12.0997 405.7805,-12.0997 405.7805,-48.7003 405.7805,-48.7003 405.7805,-54.7003 399.7805,-60.7003 393.7805,-60.7003"/>
<text text-anchor="middle" x="316.7483" y="-26.2" font-family="Times,serif" font-size="14.00" fill="#000000">StreamConsumerToList</text>
</g>
<!-- c&#45;&gt;e -->
<g id="edge4" class="edge">
<title>c-&gt;e</title>
<path fill="none" stroke="#000000" d="M316.7483,-96.8375C316.7483,-88.7172 316.7483,-79.8066 316.7483,-71.2221"/>
<polygon fill="#000000" stroke="#000000" points="320.2484,-70.9876 316.7483,-60.9876 313.2484,-70.9877 320.2484,-70.9876"/>
</g>
<!-- d -->
<g id="node4" class="node">
<title>d</title>
<path fill="none" stroke="#0000ff" d="M404.7455,-423.1003C404.7455,-423.1003 228.7511,-423.1003 228.7511,-423.1003 222.7511,-423.1003 216.7511,-417.1003 216.7511,-411.1003 216.7511,-411.1003 216.7511,-374.4997 216.7511,-374.4997 216.7511,-368.4997 222.7511,-362.4997 228.7511,-362.4997 228.7511,-362.4997 404.7455,-362.4997 404.7455,-362.4997 410.7455,-362.4997 416.7455,-368.4997 416.7455,-374.4997 416.7455,-374.4997 416.7455,-411.1003 416.7455,-411.1003 416.7455,-417.1003 410.7455,-423.1003 404.7455,-423.1003"/>
<text text-anchor="middle" x="316.7483" y="-388.6" font-family="Times,serif" font-size="14.00" fill="#000000">StreamSuppliers$OfIterator</text>
</g>
<!-- g -->
<g id="node7" class="node">
<title>g</title>
<path fill="none" stroke="#ff0000" d="M382.4504,-326.3003C382.4504,-326.3003 251.0462,-326.3003 251.0462,-326.3003 245.0462,-326.3003 239.0462,-320.3003 239.0462,-314.3003 239.0462,-314.3003 239.0462,-277.6997 239.0462,-277.6997 239.0462,-271.6997 245.0462,-265.6997 251.0462,-265.6997 251.0462,-265.6997 382.4504,-265.6997 382.4504,-265.6997 388.4504,-265.6997 394.4504,-271.6997 394.4504,-277.6997 394.4504,-277.6997 394.4504,-314.3003 394.4504,-314.3003 394.4504,-320.3003 388.4504,-326.3003 382.4504,-326.3003"/>
<text text-anchor="middle" x="316.7483" y="-291.8" font-family="Times,serif" font-size="14.00" fill="#000000">StreamUnion$Input</text>
</g>
<!-- d&#45;&gt;g -->
<g id="edge1" class="edge">
<title>d-&gt;g</title>
<path fill="none" stroke="#000000" d="M316.7483,-362.4375C316.7483,-354.3172 316.7483,-345.4066 316.7483,-336.8221"/>
<polygon fill="#000000" stroke="#000000" points="320.2484,-336.5876 316.7483,-326.5876 313.2484,-336.5877 320.2484,-336.5876"/>
</g>
<!-- i -->
<g id="node9" class="node">
<title>i</title>
<ellipse fill="none" stroke="#c0c0c0" cx="316.7483" cy="-211.6" rx="62.5585" ry="18"/>
<text text-anchor="middle" x="316.7483" y="-207.4" font-family="Times,serif" font-size="14.00" fill="#000000">StreamUnion</text>
</g>
<!-- f&#45;&gt;i -->
<g id="edge6" class="edge">
<title>f-&gt;i</title>
<path fill="none" stroke="#000000" d="M191.8723,-265.6489C218.7429,-254.0187 248.6323,-241.082 272.4308,-230.7815"/>
<polygon fill="#000000" stroke="#000000" points="274.1097,-233.8687 281.8968,-226.6845 271.3292,-227.4446 274.1097,-233.8687"/>
</g>
<!-- g&#45;&gt;i -->
<g id="edge5" class="edge">
<title>g-&gt;i</title>
<path fill="none" stroke="#000000" d="M316.7483,-265.5297C316.7483,-257.2563 316.7483,-248.3295 316.7483,-240.1655"/>
<polygon fill="#000000" stroke="#000000" points="320.2484,-239.9916 316.7483,-229.9916 313.2484,-239.9916 320.2484,-239.9916"/>
</g>
<!-- h&#45;&gt;i -->
<g id="edge7" class="edge">
<title>h-&gt;i</title>
<path fill="none" stroke="#000000" d="M441.6243,-265.6489C414.7537,-254.0187 384.8643,-241.082 361.0658,-230.7815"/>
<polygon fill="#000000" stroke="#000000" points="362.1674,-227.4446 351.5998,-226.6845 359.3869,-233.8687 362.1674,-227.4446"/>
</g>
<!-- i&#45;&gt;c -->
<g id="edge8" class="edge">
<title>i-&gt;c</title>
<path fill="none" stroke="#000000" d="M316.7483,-193.2865C316.7483,-185.8293 316.7483,-176.8884 316.7483,-168.0282"/>
<polygon fill="#000000" stroke="#000000" points="320.2484,-167.7579 316.7483,-157.758 313.2484,-167.758 320.2484,-167.7579"/>
</g>
</g>
</svg>