<?xml version="1.0" encoding="UTF-8" standalone="no"?>
<!DOCTYPE svg PUBLIC "-//W3C//DTD SVG 1.1//EN" "http://www.w3.org/Graphics/SVG/1.1/DTD/svg11.dtd">
<!-- Generated by graphviz version 2.40.1 (20161225.0304)
 -->
<!-- Title: %0 Pages: 1 -->
<svg width="581pt" height="431pt" viewBox="0.00 0.00 580.53 431.20" xmlns="http://www.w3.org/2000/svg" xmlns:xlink="http://www.w3.org/1999/xlink">
<g id="graph0" class="graph" transform="scale(1 1) rotate(0) translate(4 427.2)">
<title>%0</title>
<polygon fill="#ffffff" stroke="transparent" points="-4,4 -4,-427.2 576.5316,-427.2 576.5316,4 -4,4"/>
<!-- a -->
<g id="node1" class="node">
<title>a</title>
<path fill="none" stroke="#0000ff" d="M166.5276,-157.5003C166.5276,-157.5003 20.004,-157.5003 20.004,-157.5003 14.004,-157.5003 8.004,-151.5003 8.004,-145.5003 8.004,-145.5003 8.004,-108.8997 8.004,-108.8997 8.004,-102.8997 14.004,-96.8997 20.004,-96.8997 20.004,-96.8997 166.5276,-96.8997 166.5276,-96.8997 172.5276,-96.8997 178.5276,-102.8997 178.5276,-108.8997 178.5276,-108.8997 178.5276,-145.5003 178.5276,-145.5003 178.5276,-151.5003 172.5276,-157.5003 166.5276,-157.5003"/>
<text text-anchor="middle" x="93.2658" y="-123" font-family="Times,serif" font-size="14.00" fill="#000000">StreamSplitter$Output</text>
</g>
<!-- e -->
<g id="node5" class="node">
<title>e</title>
<path fill="none" stroke="#ff0000" d="M166.298,-60.7003C166.298,-60.7003 12.2336,-60.7003 12.2336,-60.7003 6.2336,-60.7003 .2336,-54.7003 .2336,-48.7003 .2336,-48.7003 .2336,-12.0997 .2336,-12.0997 .2336,-6.0997 6.2336,-.0997 12.2336,-.0997 12.2336,-.0997 166.298,-.0997 166.298,-.0997 172.298,-.0997 178.298,-6.0997 178.298,-12.0997 178.298,-12.0997 178.298,-48.7003 178.298,-48.7003 178.298,-54.7003 172.298,-60.7003 166.298,-60.7003"/>
<text text-anchor="middle" x="89.2658" y="-26.2" font-family="Times,serif" font-size="14.00" fill="#000000">StreamConsumerToList</text>
</g>
<!-- a&#45;&gt;e -->
<g id="edge1" class="edge">
<title>a-&gt;e</title>
<path fill="none" stroke="#000000" d="M92.0111,-96.8375C91.6756,-88.7172 91.3074,-79.8066 90.9527,-71.2221"/>
<polygon fill="#000000" stroke="#000000" points="94.4397,-70.8346 90.5298,-60.9876 87.4457,-71.1236 94.4397,-70.8346"/>
</g>
<!-- b -->
<g id="node2" class="node">
<title>b</title>
<path fill="none" stroke="#0000ff" d="M374.263,-423.1003C374.263,-423.1003 198.2686,-423.1003 198.2686,-423.1003 192.2686,-423.1003 186.2686,-417.1003 186.2686,-411.1003 186.2686,-411.1003 186.2686,-374.4997 186.2686,-374.4997 186.2686,-368.4997 192.2686,-362.4997 198.2686,-362.4997 198.2686,-362.4997 374.263,-362.4997 374.263,-362.4997 380.263,-362.4997 386.263,-368.4997 386.263,-374.4997 386.263,-374.4997 386.263,-411.1003 386.263,-411.1003 386.263,-417.1003 380.263,-423.1003 374.263,-423.1003"/>
<text text-anchor="middle" x="286.2658" y="-388.6" font-family="Times,serif" font-size="14.00" fill="#000000">StreamSuppliers$OfIterator</text>
</g>
<!-- h -->
<g id="node8" class="node">
<title>h</title>
<path fill="none" stroke="#ff0000" d="M355.1914,-326.3003C355.1914,-326.3003 217.3402,-326.3003 217.3402,-326.3003 211.3402,-326.3003 205.3402,-320.3003 205.3402,-314.3003 205.3402,-314.3003 205.3402,-277.6997 205.3402,-277.6997 205.3402,-271.6997 211.3402,-265.6997 217.3402,-265.6997 217.3402,-265.6997 355.1914,-265.6997 355.1914,-265.6997 361.1914,-265.6997 367.1914,-271.6997 367.1914,-277.6997 367.1914,-277.6997 367.1914,-314.3003 367.1914,-314.3003 367.1914,-320.3003 361.1914,-326.3003 355.1914,-326.3003"/>
<text text-anchor="middle" x="286.2658" y="-291.8" font-family="Times,serif" font-size="14.00" fill="#000000">StreamSplitter$Input</text>
</g>
<!-- b&#45;&gt;h -->
<g id="edge4" class="edge">
<title>b-&gt;h</title>
<path fill="none" stroke="#000000" d="M286.2658,-362.4375C286.2658,-354.3172 286.2658,-345.4066 286.2658,-336.8221"/>
<polygon fill="#000000" stroke="#000000" points="289.7659,-336.5876 286.2658,-326.5876 282.7659,-336.5877 289.7659,-336.5876"/>
</g>
<!-- c -->
<g id="node3" class="node">
<title>c</title>
<path fill="none" stroke="#0000ff" d="M359.5276,-157.5003C359.5276,-157.5003 213.004,-157.5003 213.004,-157.5003 207.004,-157.5003 201.004,-151.5003 201.004,-145.5003 201.004,-145.5003 201.004,-108.8997 201.004,-108.8997 201.004,-102.8997 207.004,-96.8997 213.004,-96.8997 213.004,-96.8997 359.5276,-96.8997 359.5276,-96.8997 365.5276,-96.8997 371.5276,-102.8997 371.5276,-108.8997 371.5276,-108.8997 371.5276,-145.5003 371.5276,-145.5003 371.5276,-151.5003 365.5276,-157.5003 359.5276,-157.5003"/>
<text text-anchor="middle" x="286.2658" y="-123" font-family="Times,serif" font-size="14.00" fill="#000000">StreamSplitter$Output</text>
</g>
<!-- g -->
<g id="node7" class="node">
<title>g</title>
<path fill="none" stroke="#ff0000" d="M363.298,-60.7003C363.298,-60.7003 209.2336,-60.7003 209.2336,-60.7003 203.2336,-60.7003 197.2336,-54.7003 197.2336,-48.7003 197.2336,-48.7003 197.2336,-12.0997 197.2336,-12.0997 197.2336,-6.0997 203.2336,-.0997 209.2336,-.0997 209.2336,-.0997 363.298,-.0997 363.298,-.0997 369.298,-.0997 375.298,-6.0997 375.298,-12.0997 375.298,-12.0997 375.298,-48.7003 375.298,-48.7003 375.298,-54.7003 369.298,-60.7003 363.298,-60.7003"/>
<text text-anchor="middle" x="286.2658" y="-26.2" font-family="Times,serif" font-size="14.00" fill="#000000">StreamConsumerToList</text>
</g>
<!-- c&#45;&gt;g -->
<g id="edge2" class="edge">
<title>c-&gt;g</title>
<path fill="none" stroke="#000000" d="M286.2658,-96.8375C286.2658,-88.7172 286.2658,-79.8066 286.2658,-71.2221"/>
<polygon fill="#000000" stroke="#000000" points="289.7659,-70.9876 286.2658,-60.9876 282.7659,-70.9877 289.7659,-70.9876"/>
</g>
<!-- d -->
<g id="node4" class="node">
<title>d</title>
<path fill="none" stroke="#0000ff" d="M552.5276,-157.5003C552.5276,-157.5003 406.004,-157.5003 406.004,-157.5003 400.004,-157.5003 394.004,-151.5003 394.004,-145.5003 394.004,-145.5003 394.004,-108.8997 394.004,-108.8997 394.004,-102.8997 400.004,-96.8997 406.004,-96.8997 406.004,-96.8997 552.5276,-96.8997 552.5276,-96.8997 558.5276,-96.8997 564.5276,-102.8997 564.5276,-108.8997 564.5276,-108.8997 564.5276,-145.5003 564.5276,-145.5003 564.5276,-151.5003 558.5276,-157.5003 552.5276,-157.5003"/>
<text text-anchor="middle" x="479.2658" y="-123" font-family="Times,serif" font-size="14.00" fill="#000000">StreamSplitter$Output</text>
</g>
<!-- f -->
<g id="node6" class="node">
<title>f</title>
<path fill="none" stroke="#ff0000" d="M560.298,-60.7003C560.298,-60.7003 406.2336,-60.7003 406.2336,-60.7003 400.2336,-60.7003 394.2336,-54.7003 394.2336,-48.7003 394.2336,-48.7003 394.2336,-12.0997 394.2336,-12.0997 394.2336,-6.0997 400.2336,-.0997 406.2336,-.0997 406.2336,-.0997 560.298,-.0997 560.298,-.0997 566.298,-.0997 572.298,-6.0997 572.298,-12.0997 572.298,-12.0997 572.298,-48.7003 572.298,-48.7003 572.298,-54.7003 566.298,-60.7003 560.298,-60.7003"/>
<text text-anchor="middle" x="483.2658" y="-26.2" font-family="Times,serif" font-size="14.00" fill="#000000">StreamConsumerToList</text>
</g>
<!-- d&#45;&gt;f -->
<g id="edge3" class="edge">
<title>d-&gt;f</title>
<path fill="none" stroke="#000000" d="M480.5205,-96.8375C480.856,-88.7172 481.2242,-79.8066 481.5789,-71.2221"/>
<polygon fill="#000000" stroke="#000000" points="485.0859,-71.1236 482.0018,-60.9876 478.0919,-70.8346 485.0859,-71.1236"/>
</g>
<!-- i -->
<g id="node9" class="node">
<title>i</title>
<ellipse fill="none" stroke="#c0c0c0" cx="286.2658" cy="-211.6" rx="66.644" ry="18"/>
<text text-anchor="middle" x="286.2658" y="-207.4" font-family="Times,serif" font-size="14.00" fill="#000000">StreamSplitter</text>
</g>
<!-- h&#45;&gt;i -->
<g id="edge5" class="edge">
<title>h-&gt;i</title>
<path fill="none" stroke="#000000" d="M286.2658,-265.5297C286.2658,-257.2563 286.2658,-248.3295 286.2658,-240.1655"/>
<polygon fill="#000000" stroke="#000000" points="289.7659,-239.9916 286.2658,-229.9916 282.7659,-239.9916 289.7659,-239.9916"/>
</g>
<!-- i&#45;&gt;a -->
<g id="edge6" class="edge">
<title>i-&gt;a</title>
<path fill="none" stroke="#000000" d="M250.8666,-196.1197C228.7704,-186.4569 199.4136,-173.619 172.03,-161.6441"/>
<polygon fill="#000000" stroke="#000000" points="173.397,-158.4219 162.8324,-157.6219 170.5923,-164.8354 173.397,-158.4219"/>
</g>
<!-- i&#45;&gt;c -->
<g id="edge7" class="edge">
<title>i-&gt;c</title>
<path fill="none" stroke="#000000" d="M286.2658,-193.2865C286.2658,-185.8293 286.2658,-176.8884 286.2658,-168.0282"/>
<polygon fill="#000000" stroke="#000000" points="289.7659,-167.7579 286.2658,-157.758 282.7659,-167.758 289.7659,-167.7579"/>
</g>
<!-- i&#45;&gt;d -->
<g id="edge8" class="edge">
<title>i-&gt;d</title>
<path fill="none" stroke="#000000" d="M321.665,-196.1197C343.7612,-186.4569 373.118,-173.619 400.5016,-161.6441"/>
<polygon fill="#000000" stroke="#000000" points="401.9393,-164.8354 409.6992,-157.6219 399.1346,-158.4219 401.9393,-164.8354"/>
</g>
</g>
</svg>