<?xml version="1.0" encoding="UTF-8" standalone="no"?>
<!DOCTYPE svg PUBLIC "-//W3C//DTD SVG 1.1//EN" "http://www.w3.org/Graphics/SVG/1.1/DTD/svg11.dtd">
<!-- Generated by graphviz version 2.40.1 (20161225.0304)
 -->
<!-- Title: %0 Pages: 1 -->
<svg width="207pt" height="431pt" viewBox="0.00 0.00 207.50 431.20" xmlns="http://www.w3.org/2000/svg" xmlns:xlink="http://www.w3.org/1999/xlink">
<g id="graph0" class="graph" transform="scale(1 1) rotate(0) translate(4 427.2)">
<title>%0</title>
<polygon fill="#ffffff" stroke="transparent" points="-4,4 -4,-427.2 203.4966,-427.2 203.4966,4 -4,4"/>
<!-- a -->
<g id="node1" class="node">
<title>a</title>
<path fill="none" stroke="#0000ff" d="M167.6194,-157.5003C167.6194,-157.5003 31.8772,-157.5003 31.8772,-157.5003 25.8772,-157.5003 19.8772,-151.5003 19.8772,-145.5003 19.8772,-145.5003 19.8772,-108.8997 19.8772,-108.8997 19.8772,-102.8997 25.8772,-96.8997 31.8772,-96.8997 31.8772,-96.8997 167.6194,-96.8997 167.6194,-96.8997 173.6194,-96.8997 179.6194,-102.8997 179.6194,-108.8997 179.6194,-108.8997 179.6194,-145.5003 179.6194,-145.5003 179.6194,-151.5003 173.6194,-157.5003 167.6194,-157.5003"/>
<text text-anchor="middle" x="99.7483" y="-123" font-family="Times,serif" font-size="14.00" fill="#000000">StreamFilter$Output</text>
</g>
<!-- c -->
<g id="node3" class="node">
<title>c</title>
<path fill="none" stroke="#ff0000" d="M176.7805,-60.7003C176.7805,-60.7003 22.7161,-60.7003 22.7161,-60.7003 16.7161,-60.7003 10.7161,-54.7003 10.7161,-48.7003 10.7161,-48.7003 10.7161,-12.0997 10.7161,-12.0997 10.7161,-6.0997 16.7161,-.0997 22.7161,-.0997 22.7161,-.0997 176.7805,-.0997 176.7805,-.0997 182.7805,-.0997 188.7805,-6.0997 188.7805,-12.0997 188.7805,-12.0997 188.7805,-48.7003 188.7805,-48.7003 188.7805,-54.7003 182.7805,-60.7003 176.7805,-60.7003"/>
<text text-anchor="middle" x="99.7483" y="-26.2" font-family="Times,serif" font-size="14.00" fill="#000000">StreamConsumerToList</text>
</g>
<!-- a&#45;&gt;c -->
<g id="edge2" class="edge">
<title>a-&gt;c</title>
<path fill="none" stroke="#000000" d="M99.7483,-96.8375C99.7483,-88.7172 99.7483,-79.8066 99.7483,-71.2221"/>
<polygon fill="#000000" stroke="#000000" points="103.2484,-70.9876 99.7483,-60.9876 96.2484,-70.9877 103.2484,-70.9876"/>
</g>
<!-- b -->
<g id="node2" class="node">
<title>b</title>
<path fill="none" stroke="#0000ff" d="M187.7455,-423.1003C187.7455,-423.1003 11.7511,-423.1003 11.7511,-423.1003 5.7511,-423.1003 -.2489,-417.1003 -.2489,-411.1003 -.2489,-411.1003 -.2489,-374.4997 -.2489,-374.4997 -.2489,-368.4997 5.7511,-362.4997 11.7511,-362.4997 11.7511,-362.4997 187.7455,-362.4997 187.7455,-362.4997 193.7455,-362.4997 199.7455,-368.4997 199.7455,-374.4997 199.7455,-374.4997 199.7455,-411.1003 199.7455,-411.1003 199.7455,-417.1003 193.7455,-423.1003 187.7455,-423.1003"/>
<text text-anchor="middle" x="99.7483" y="-388.6" font-family="Times,serif" font-size="14.00" fill="#000000">StreamSuppliers$OfIterator</text>
</g>
<!-- d -->
<g id="node4" class="node">
<title>d</title>
<path fill="none" stroke="#ff0000" d="M162.7834,-326.3003C162.7834,-326.3003 36.7132,-326.3003 36.7132,-326.3003 30.7132,-326.3003 24.7132,-320.3003 24.7132,-314.3003 24.7132,-314.3003 24.7132,-277.6997 24.7132,-277.6997 24.7132,-271.6997 30.7132,-265.6997 36.7132,-265.6997 36.7132,-265.6997 162.7834,-265.6997 162.7834,-265.6997 168.7834,-265.6997 174.7834,-271.6997 174.7834,-277.6997 174.7834,-277.6997 174.7834,-314.3003 174.7834,-314.3003 174.7834,-320.3003 168.7834,-326.3003 162.7834,-326.3003"/>
<text text-anchor="middle" x="99.7483" y="-291.8" font-family="Times,serif" font-size="14.00" fill="#000000">StreamFilter$Input</text>
</g>
<!-- b&#45;&gt;d -->
<g id="edge1" class="edge">
<title>b-&gt;d</title>
<path fill="none" stroke="#000000" d="M99.7483,-362.4375C99.7483,-354.3172 99.7483,-345.4066 99.7483,-336.8221"/>
<polygon fill="#000000" stroke="#000000" points="103.2484,-336.5876 99.7483,-326.5876 96.2484,-336.5877 103.2484,-336.5876"/>
</g>
<!-- e -->
<g id="node5" class="node">
<title>e</title>
<ellipse fill="none" stroke="#c0c0c0" cx="99.7483" cy="-211.6" rx="59.1199" ry="18"/>
<text text-anchor="middle" x="99.7483" y="-207.4" font-family="Times,serif" font-size="14.00" fill="#000000">StreamFilter</text>
</g>
<!-- d&#45;&gt;e -->
<g id="edge3" class="edge">
<title>d-&gt;e</title>
<path fill="none" stroke="#000000" d="M99.7483,-265.5297C99.7483,-257.2563 99.7483,-248.3295 99.7483,-240.1655"/>
<polygon fill="#000000" stroke="#000000" points="103.2484,-239.9916 99.7483,-229.9916 96.2484,-239.9916 103.2484,-239.9916"/>
</g>
<!-- e&#45;&gt;a -->
<g id="edge4" class="edge">
<title>e-&gt;a</title>
<path fill="none" stroke="#000000" d="M99.7483,-193.2865C99.7483,-185.8293 99.7483,-176.8884 99.7483,-168.0282"/>
<polygon fill="#000000" stroke="#000000" points="103.2484,-167.7579 99.7483,-157.758 96.2484,-167.758 103.2484,-167.7579"/>
</g>
</g>
</svg>