<svg width="1920" height="881" viewBox="0 0 1920 881" fill="none" xmlns="http://www.w3.org/2000/svg">
<path d="M1829.14 19.0363L1824.74 35.5647L1812.63 23.4927L1829.14 19.0363Z" fill="black" fill-opacity="0.05"/>
<path d="M1861.78 51.5617L1857.39 68.0901L1845.27 56.0181L1861.78 51.5617Z" fill="black" fill-opacity="0.05"/>
<path d="M1894.43 84.0874L1890.03 100.616L1877.91 88.5438L1894.43 84.0874Z" fill="black" fill-opacity="0.05"/>
<path d="M1927.07 116.613L1922.67 133.141L1910.56 121.069L1927.07 116.613Z" fill="black" fill-opacity="0.05"/>
<path d="M1959.71 149.139L1955.32 165.667L1943.2 153.595L1959.71 149.139Z" fill="black" fill-opacity="0.05"/>
<path d="M1992.36 181.664L1987.96 198.193L1975.84 186.121L1992.36 181.664Z" fill="black" fill-opacity="0.05"/>
<path d="M1796.62 51.6791L1792.22 68.2075L1780.1 56.1355L1796.62 51.6791Z" fill="black" fill-opacity="0.05"/>
<path d="M1829.26 84.2047L1824.86 100.733L1812.75 88.6611L1829.26 84.2047Z" fill="black" fill-opacity="0.05"/>
<path d="M1861.9 116.73L1857.5 133.259L1845.39 121.187L1861.9 116.73Z" fill="black" fill-opacity="0.05"/>
<path d="M1894.54 149.256L1890.15 165.784L1878.03 153.712L1894.54 149.256Z" fill="black" fill-opacity="0.05"/>
<path d="M1927.19 181.782L1922.79 198.31L1910.67 186.238L1927.19 181.782Z" fill="black" fill-opacity="0.05"/>
<path d="M1959.83 214.307L1955.43 230.836L1943.32 218.764L1959.83 214.307Z" fill="black" fill-opacity="0.05"/>
<path d="M1764.09 84.3221L1759.69 100.85L1747.58 88.7785L1764.09 84.3221Z" fill="black" fill-opacity="0.05"/>
<path d="M1796.73 116.848L1792.34 133.376L1780.22 121.304L1796.73 116.848Z" fill="black" fill-opacity="0.05"/>
<path d="M1829.38 149.373L1824.98 165.902L1812.86 153.83L1829.38 149.373Z" fill="black" fill-opacity="0.05"/>
<path d="M1862.02 181.899L1857.62 198.427L1845.51 186.355L1862.02 181.899Z" fill="black" fill-opacity="0.05"/>
<path d="M1894.66 214.425L1890.26 230.953L1878.15 218.881L1894.66 214.425Z" fill="black" fill-opacity="0.05"/>
<path d="M1927.3 246.95L1922.91 263.479L1910.79 251.407L1927.3 246.95Z" fill="black" fill-opacity="0.05"/>
<path d="M1731.56 116.965L1727.17 133.493L1715.05 121.421L1731.56 116.965Z" fill="black" fill-opacity="0.05"/>
<path d="M1764.21 149.491L1759.81 166.019L1747.69 153.947L1764.21 149.491Z" fill="black" fill-opacity="0.05"/>
<path d="M1796.85 182.016L1792.45 198.545L1780.34 186.473L1796.85 182.016Z" fill="black" fill-opacity="0.05"/>
<path d="M1829.49 214.542L1825.1 231.07L1812.98 218.998L1829.49 214.542Z" fill="black" fill-opacity="0.05"/>
<path d="M1862.14 247.068L1857.74 263.596L1845.62 251.524L1862.14 247.068Z" fill="black" fill-opacity="0.05"/>
<path d="M1894.78 279.593L1890.38 296.122L1878.27 284.05L1894.78 279.593Z" fill="black" fill-opacity="0.05"/>
<path d="M1699.04 149.608L1694.64 166.136L1682.53 154.064L1699.04 149.608Z" fill="black" fill-opacity="0.05"/>
<path d="M1731.68 182.134L1727.28 198.662L1715.17 186.59L1731.68 182.134Z" fill="black" fill-opacity="0.05"/>
<path d="M1764.32 214.659L1759.93 231.188L1747.81 219.116L1764.32 214.659Z" fill="black" fill-opacity="0.05"/>
<path d="M1796.97 247.185L1792.57 263.713L1780.45 251.641L1796.97 247.185Z" fill="black" fill-opacity="0.05"/>
<path d="M1829.61 279.711L1825.21 296.239L1813.1 284.167L1829.61 279.711Z" fill="black" fill-opacity="0.05"/>
<path d="M1862.25 312.236L1857.86 328.765L1845.74 316.693L1862.25 312.236Z" fill="black" fill-opacity="0.05"/>
<path d="M1666.51 182.251L1662.12 198.779L1650 186.707L1666.51 182.251Z" fill="black" fill-opacity="0.05"/>
<path d="M1699.16 214.777L1694.76 231.305L1682.64 219.233L1699.16 214.777Z" fill="black" fill-opacity="0.05"/>
<path d="M1731.8 247.302L1727.4 263.831L1715.29 251.759L1731.8 247.302Z" fill="black" fill-opacity="0.05"/>
<path d="M1764.44 279.828L1760.04 296.356L1747.93 284.284L1764.44 279.828Z" fill="black" fill-opacity="0.05"/>
<path d="M1797.08 312.354L1792.69 328.882L1780.57 316.81L1797.08 312.354Z" fill="black" fill-opacity="0.05"/>
<path d="M1829.73 344.879L1825.33 361.408L1813.22 349.336L1829.73 344.879Z" fill="black" fill-opacity="0.05"/>
<path d="M11.3421 0.274414L13.5883 22.4353L-6.72668 13.3001L11.3421 0.274414Z" fill="black" fill-opacity="0.05"/>
<path d="M66.0766 24.8872L68.3228 47.0481L48.0078 37.9129L66.0766 24.8872Z" fill="black" fill-opacity="0.05"/>
<path d="M120.812 49.5001L123.058 71.661L102.743 62.5258L120.812 49.5001Z" fill="black" fill-opacity="0.05"/>
<path d="M175.546 74.113L177.792 96.2739L157.477 87.1387L175.546 74.113Z" fill="black" fill-opacity="0.05"/>
<path d="M230.281 98.7259L232.527 120.887L212.212 111.752L230.281 98.7259Z" fill="black" fill-opacity="0.05"/>
<path d="M285.016 123.339L287.262 145.5L266.947 136.365L285.016 123.339Z" fill="black" fill-opacity="0.05"/>
<path d="M-13.2709 55.009L-11.0247 77.1699L-31.3397 68.0347L-13.2709 55.009Z" fill="black" fill-opacity="0.05"/>
<path d="M41.4638 79.6219L43.71 101.783L23.395 92.6477L41.4638 79.6219Z" fill="black" fill-opacity="0.05"/>
<path d="M96.1984 104.235L98.4446 126.396L78.1296 117.261L96.1984 104.235Z" fill="black" fill-opacity="0.05"/>
<path d="M150.933 128.848L153.18 151.009L132.865 141.873L150.933 128.848Z" fill="black" fill-opacity="0.05"/>
<path d="M205.668 153.461L207.914 175.622L187.599 166.486L205.668 153.461Z" fill="black" fill-opacity="0.05"/>
<path d="M260.403 178.074L262.649 200.234L242.334 191.099L260.403 178.074Z" fill="black" fill-opacity="0.05"/>
<path d="M-37.8837 109.744L-35.6375 131.905L-55.9525 122.77L-37.8837 109.744Z" fill="black" fill-opacity="0.05"/>
<path d="M16.8509 134.357L19.0971 156.518L-1.21788 147.382L16.8509 134.357Z" fill="black" fill-opacity="0.05"/>
<path d="M71.5856 158.97L73.8318 181.13L53.5168 171.995L71.5856 158.97Z" fill="black" fill-opacity="0.05"/>
<path d="M126.32 183.582L128.566 205.743L108.251 196.608L126.32 183.582Z" fill="black" fill-opacity="0.05"/>
<path d="M181.055 208.195L183.301 230.356L162.986 221.221L181.055 208.195Z" fill="black" fill-opacity="0.05"/>
<path d="M235.79 232.808L238.036 254.969L217.721 245.834L235.79 232.808Z" fill="black" fill-opacity="0.05"/>
<path d="M-62.4969 164.478L-60.2507 186.639L-80.5657 177.504L-62.4969 164.478Z" fill="black" fill-opacity="0.05"/>
<path d="M-7.76192 189.091L-5.51572 211.252L-25.8307 202.117L-7.76192 189.091Z" fill="black" fill-opacity="0.05"/>
<path d="M46.9727 213.704L49.2189 235.865L28.9039 226.73L46.9727 213.704Z" fill="black" fill-opacity="0.05"/>
<path d="M101.707 238.317L103.954 260.478L83.6386 251.343L101.707 238.317Z" fill="black" fill-opacity="0.05"/>
<path d="M156.442 262.93L158.689 285.091L138.374 275.956L156.442 262.93Z" fill="black" fill-opacity="0.05"/>
<path d="M211.177 287.543L213.423 309.704L193.108 300.569L211.177 287.543Z" fill="black" fill-opacity="0.05"/>
<path d="M-87.1097 219.213L-84.8635 241.374L-105.179 232.239L-87.1097 219.213Z" fill="black" fill-opacity="0.05"/>
<path d="M-32.3748 243.826L-30.1286 265.987L-50.4436 256.852L-32.3748 243.826Z" fill="black" fill-opacity="0.05"/>
<path d="M22.3599 268.439L24.6061 290.6L4.29108 281.465L22.3599 268.439Z" fill="black" fill-opacity="0.05"/>
<path d="M77.0945 293.052L79.3407 315.213L59.0257 306.078L77.0945 293.052Z" fill="black" fill-opacity="0.05"/>
<path d="M131.829 317.665L134.075 339.826L113.76 330.691L131.829 317.665Z" fill="black" fill-opacity="0.05"/>
<path d="M186.564 342.278L188.81 364.439L168.495 355.303L186.564 342.278Z" fill="black" fill-opacity="0.05"/>
<path d="M-111.723 273.948L-109.476 296.109L-129.791 286.974L-111.723 273.948Z" fill="black" fill-opacity="0.05"/>
<path d="M-56.9879 298.561L-54.7417 320.722L-75.0567 311.587L-56.9879 298.561Z" fill="black" fill-opacity="0.05"/>
<path d="M-2.25298 323.174L-0.00675964 345.335L-20.3218 336.199L-2.25298 323.174Z" fill="black" fill-opacity="0.05"/>
<path d="M52.4817 347.787L54.7279 369.948L34.4129 360.812L52.4817 347.787Z" fill="black" fill-opacity="0.05"/>
<path d="M107.216 372.4L109.463 394.56L89.1475 385.425L107.216 372.4Z" fill="black" fill-opacity="0.05"/>
<path d="M161.951 397.012L164.198 419.173L143.882 410.038L161.951 397.012Z" fill="black" fill-opacity="0.05"/>
<path d="M-46.6579 461.274L-44.4117 483.435L-64.7267 474.3L-46.6579 461.274Z" fill="black" fill-opacity="0.05"/>
<path d="M8.07661 485.887L10.3228 508.048L-9.99217 498.913L8.07661 485.887Z" fill="black" fill-opacity="0.05"/>
<path d="M62.8116 510.5L65.0578 532.661L44.7428 523.526L62.8116 510.5Z" fill="black" fill-opacity="0.05"/>
<path d="M117.546 535.113L119.792 557.274L99.4774 548.139L117.546 535.113Z" fill="black" fill-opacity="0.05"/>
<path d="M172.281 559.726L174.527 581.887L154.212 572.752L172.281 559.726Z" fill="black" fill-opacity="0.05"/>
<path d="M227.016 584.339L229.262 606.5L208.947 597.365L227.016 584.339Z" fill="black" fill-opacity="0.05"/>
<path d="M-71.2709 516.009L-69.0247 538.17L-89.3397 529.035L-71.2709 516.009Z" fill="black" fill-opacity="0.05"/>
<path d="M-16.5362 540.622L-14.29 562.783L-34.605 553.648L-16.5362 540.622Z" fill="black" fill-opacity="0.05"/>
<path d="M38.1984 565.235L40.4446 587.396L20.1296 578.261L38.1984 565.235Z" fill="black" fill-opacity="0.05"/>
<path d="M92.9334 589.848L95.1796 612.009L74.8646 602.874L92.9334 589.848Z" fill="black" fill-opacity="0.05"/>
<path d="M147.668 614.461L149.914 636.622L129.599 627.486L147.668 614.461Z" fill="black" fill-opacity="0.05"/>
<path d="M202.403 639.074L204.649 661.234L184.334 652.099L202.403 639.074Z" fill="black" fill-opacity="0.05"/>
<path d="M-95.8837 570.744L-93.6375 592.905L-113.953 583.77L-95.8837 570.744Z" fill="black" fill-opacity="0.05"/>
<path d="M-41.1491 595.357L-38.9029 617.518L-59.2179 608.382L-41.1491 595.357Z" fill="black" fill-opacity="0.05"/>
<path d="M13.5856 619.97L15.8318 642.131L-4.48322 632.995L13.5856 619.97Z" fill="black" fill-opacity="0.05"/>
<path d="M68.3202 644.583L70.5664 666.743L50.2514 657.608L68.3202 644.583Z" fill="black" fill-opacity="0.05"/>
<path d="M123.055 669.195L125.301 691.356L104.986 682.221L123.055 669.195Z" fill="black" fill-opacity="0.05"/>
<path d="M177.79 693.808L180.036 715.969L159.721 706.834L177.79 693.808Z" fill="black" fill-opacity="0.05"/>
<path d="M-120.497 625.479L-118.251 647.639L-138.566 638.504L-120.497 625.479Z" fill="black" fill-opacity="0.05"/>
<path d="M-65.7619 650.091L-63.5157 672.252L-83.8307 663.117L-65.7619 650.091Z" fill="black" fill-opacity="0.05"/>
<path d="M-11.0273 674.704L-8.78107 696.865L-29.0961 687.73L-11.0273 674.704Z" fill="black" fill-opacity="0.05"/>
<path d="M43.7074 699.317L45.9536 721.478L25.6386 712.343L43.7074 699.317Z" fill="black" fill-opacity="0.05"/>
<path d="M98.4424 723.93L100.689 746.091L80.3735 736.956L98.4424 723.93Z" fill="black" fill-opacity="0.05"/>
<path d="M153.177 748.543L155.423 770.704L135.108 761.569L153.177 748.543Z" fill="black" fill-opacity="0.05"/>
<path d="M-145.11 680.213L-142.864 702.374L-163.179 693.239L-145.11 680.213Z" fill="black" fill-opacity="0.05"/>
<path d="M-90.3748 704.826L-88.1286 726.987L-108.444 717.852L-90.3748 704.826Z" fill="black" fill-opacity="0.05"/>
<path d="M-35.6401 729.439L-33.3939 751.6L-53.7089 742.465L-35.6401 729.439Z" fill="black" fill-opacity="0.05"/>
<path d="M19.0945 754.052L21.3407 776.213L1.02571 767.078L19.0945 754.052Z" fill="black" fill-opacity="0.05"/>
<path d="M73.8292 778.665L76.0754 800.826L55.7604 791.691L73.8292 778.665Z" fill="black" fill-opacity="0.05"/>
<path d="M128.564 803.278L130.81 825.439L110.495 816.304L128.564 803.278Z" fill="black" fill-opacity="0.05"/>
<path d="M-169.723 734.948L-167.476 757.109L-187.791 747.974L-169.723 734.948Z" fill="black" fill-opacity="0.05"/>
<path d="M-114.988 759.561L-112.742 781.722L-133.057 772.587L-114.988 759.561Z" fill="black" fill-opacity="0.05"/>
<path d="M-60.253 784.174L-58.0068 806.335L-78.3218 797.2L-60.253 784.174Z" fill="black" fill-opacity="0.05"/>
<path d="M-5.51831 808.787L-3.27211 830.948L-23.5871 821.812L-5.51831 808.787Z" fill="black" fill-opacity="0.05"/>
<path d="M49.2163 833.4L51.4625 855.561L31.1475 846.425L49.2163 833.4Z" fill="black" fill-opacity="0.05"/>
<path d="M103.951 858.013L106.198 880.173L85.8825 871.038L103.951 858.013Z" fill="black" fill-opacity="0.05"/>
<path d="M1625.34 470.097L1621 486.277L1609.16 474.433L1625.34 470.097Z" fill="black" fill-opacity="0.05"/>
<path d="M1657.25 502.01L1652.92 518.19L1641.07 506.346L1657.25 502.01Z" fill="black" fill-opacity="0.05"/>
<path d="M1689.16 533.923L1684.83 550.103L1672.98 538.258L1689.16 533.923Z" fill="black" fill-opacity="0.05"/>
<path d="M1721.08 565.836L1716.74 582.016L1704.9 570.171L1721.08 565.836Z" fill="black" fill-opacity="0.05"/>
<path d="M1752.99 597.749L1748.65 613.929L1736.81 602.084L1752.99 597.749Z" fill="black" fill-opacity="0.05"/>
<path d="M1784.9 629.662L1780.57 645.842L1768.72 633.997L1784.9 629.662Z" fill="black" fill-opacity="0.05"/>
<path d="M1593.43 502.01L1589.09 518.19L1577.25 506.346L1593.43 502.01Z" fill="black" fill-opacity="0.05"/>
<path d="M1625.34 533.923L1621 550.103L1609.16 538.258L1625.34 533.923Z" fill="black" fill-opacity="0.05"/>
<path d="M1657.25 565.836L1652.92 582.016L1641.07 570.171L1657.25 565.836Z" fill="black" fill-opacity="0.05"/>
<path d="M1689.16 597.749L1684.83 613.929L1672.98 602.084L1689.16 597.749Z" fill="black" fill-opacity="0.05"/>
<path d="M1721.08 629.662L1716.74 645.842L1704.9 633.997L1721.08 629.662Z" fill="black" fill-opacity="0.05"/>
<path d="M1752.99 661.574L1748.65 677.754L1736.81 665.91L1752.99 661.574Z" fill="black" fill-opacity="0.05"/>
<path d="M1561.51 533.923L1557.18 550.103L1545.33 538.258L1561.51 533.923Z" fill="black" fill-opacity="0.05"/>
<path d="M1593.43 565.836L1589.09 582.016L1577.25 570.171L1593.43 565.836Z" fill="black" fill-opacity="0.05"/>
<path d="M1625.34 597.749L1621 613.929L1609.16 602.084L1625.34 597.749Z" fill="black" fill-opacity="0.05"/>
<path d="M1657.25 629.662L1652.92 645.842L1641.07 633.997L1657.25 629.662Z" fill="black" fill-opacity="0.05"/>
<path d="M1689.16 661.574L1684.83 677.754L1672.98 665.91L1689.16 661.574Z" fill="black" fill-opacity="0.05"/>
<path d="M1721.08 693.487L1716.74 709.667L1704.9 697.823L1721.08 693.487Z" fill="black" fill-opacity="0.05"/>
<path d="M1529.6 565.836L1525.26 582.016L1513.42 570.171L1529.6 565.836Z" fill="black" fill-opacity="0.05"/>
<path d="M1561.51 597.749L1557.18 613.929L1545.33 602.084L1561.51 597.749Z" fill="black" fill-opacity="0.05"/>
<path d="M1593.43 629.662L1589.09 645.842L1577.25 633.997L1593.43 629.662Z" fill="black" fill-opacity="0.05"/>
<path d="M1625.34 661.574L1621 677.754L1609.16 665.91L1625.34 661.574Z" fill="black" fill-opacity="0.05"/>
<path d="M1657.25 693.487L1652.92 709.667L1641.07 697.823L1657.25 693.487Z" fill="black" fill-opacity="0.05"/>
<path d="M1689.16 725.4L1684.83 741.58L1672.98 729.735L1689.16 725.4Z" fill="black" fill-opacity="0.05"/>
<path d="M1497.69 597.749L1493.35 613.929L1481.51 602.084L1497.69 597.749Z" fill="black" fill-opacity="0.05"/>
<path d="M1529.6 629.662L1525.26 645.842L1513.42 633.997L1529.6 629.662Z" fill="black" fill-opacity="0.05"/>
<path d="M1561.51 661.574L1557.18 677.754L1545.33 665.91L1561.51 661.574Z" fill="black" fill-opacity="0.05"/>
<path d="M1593.43 693.487L1589.09 709.667L1577.25 697.823L1593.43 693.487Z" fill="black" fill-opacity="0.05"/>
<path d="M1625.34 725.4L1621 741.58L1609.16 729.735L1625.34 725.4Z" fill="black" fill-opacity="0.05"/>
<path d="M1657.25 757.313L1652.92 773.493L1641.07 761.648L1657.25 757.313Z" fill="black" fill-opacity="0.05"/>
<path d="M1465.77 629.662L1461.44 645.842L1449.59 633.997L1465.77 629.662Z" fill="black" fill-opacity="0.05"/>
<path d="M1497.69 661.574L1493.35 677.754L1481.51 665.91L1497.69 661.574Z" fill="black" fill-opacity="0.05"/>
<path d="M1529.6 693.487L1525.26 709.667L1513.42 697.823L1529.6 693.487Z" fill="black" fill-opacity="0.05"/>
<path d="M1561.51 725.4L1557.18 741.58L1545.33 729.735L1561.51 725.4Z" fill="black" fill-opacity="0.05"/>
<path d="M1593.43 757.313L1589.09 773.493L1577.25 761.648L1593.43 757.313Z" fill="black" fill-opacity="0.05"/>
<path d="M1625.34 789.226L1621 805.406L1609.16 793.561L1625.34 789.226Z" fill="black" fill-opacity="0.05"/>
</svg>
