<svg width="170" height="94" viewBox="0 0 170 94" fill="none" xmlns="http://www.w3.org/2000/svg">
<path d="M0.920044 0.298492H16.2175V15.5959H0.920044V0.298492Z" fill="url(#paint0_linear)"/>
<path d="M26.4158 0.298492H41.7132V15.5959H26.4158V0.298492Z" fill="url(#paint1_linear)"/>
<path d="M51.9115 0.298492H67.2089V15.5959H51.9115V0.298492Z" fill="url(#paint2_linear)"/>
<path d="M77.4072 0.298492H92.7047V15.5959H77.4072V0.298492Z" fill="url(#paint3_linear)"/>
<path d="M102.903 0.298492H118.2V15.5959H102.903V0.298492Z" fill="url(#paint4_linear)"/>
<path d="M128.399 0.298492H143.696V15.5959H128.399V0.298492Z" fill="url(#paint5_linear)"/>
<path d="M153.894 0.298492H169.192V15.5959H153.894V0.298492Z" fill="url(#paint6_linear)"/>
<path d="M0.920044 25.7942H16.2175V41.0917H0.920044V25.7942Z" fill="url(#paint7_linear)"/>
<path d="M26.4158 25.7942H41.7132V41.0917H26.4158V25.7942Z" fill="url(#paint8_linear)"/>
<path d="M51.9115 25.7942H67.2089V41.0917H51.9115V25.7942Z" fill="url(#paint9_linear)"/>
<path d="M77.4072 25.7942H92.7047V41.0917H77.4072V25.7942Z" fill="url(#paint10_linear)"/>
<path d="M102.903 25.7942H118.2V41.0917H102.903V25.7942Z" fill="url(#paint11_linear)"/>
<path d="M128.399 25.7942H143.696V41.0917H128.399V25.7942Z" fill="url(#paint12_linear)"/>
<path d="M153.894 25.7942H169.192V41.0917H153.894V25.7942Z" fill="url(#paint13_linear)"/>
<path d="M0.920044 51.9273H16.2175V67.2248H0.920044V51.9273Z" fill="url(#paint14_linear)"/>
<path d="M26.4158 51.9273H41.7132V67.2248H26.4158V51.9273Z" fill="url(#paint15_linear)"/>
<path d="M51.9115 51.9273H67.2089V67.2248H51.9115V51.9273Z" fill="url(#paint16_linear)"/>
<path d="M77.4072 51.9273H92.7047V67.2248H77.4072V51.9273Z" fill="url(#paint17_linear)"/>
<path d="M102.903 51.9273H118.2V67.2248H102.903V51.9273Z" fill="url(#paint18_linear)"/>
<path d="M128.399 51.9273H143.696V67.2248H128.399V51.9273Z" fill="url(#paint19_linear)"/>
<path d="M153.894 51.9273H169.192V67.2248H153.894V51.9273Z" fill="url(#paint20_linear)"/>
<path d="M0.920044 77.7585H16.2175V93.056H0.920044V77.7585Z" fill="url(#paint21_linear)"/>
<path d="M26.4158 77.7585H41.7132V93.056H26.4158V77.7585Z" fill="url(#paint22_linear)"/>
<path d="M51.9115 77.7585H67.2089V93.056H51.9115V77.7585Z" fill="url(#paint23_linear)"/>
<path d="M77.4072 77.7585H92.7047V93.056H77.4072V77.7585Z" fill="url(#paint24_linear)"/>
<path d="M102.903 77.7585H118.2V93.056H102.903V77.7585Z" fill="url(#paint25_linear)"/>
<path d="M128.399 77.7585H143.696V93.056H128.399V77.7585Z" fill="url(#paint26_linear)"/>
<path d="M153.894 77.7585H169.192V93.056H153.894V77.7585Z" fill="url(#paint27_linear)"/>
<defs>
<linearGradient id="paint0_linear" x1="0.920044" y1="0.298492" x2="194.688" y2="92.0831" gradientUnits="userSpaceOnUse">
<stop stop-color="#005400"/>
<stop offset="1" stop-color="#8BC34A"/>
</linearGradient>
<linearGradient id="paint1_linear" x1="0.920044" y1="0.298492" x2="194.688" y2="92.0831" gradientUnits="userSpaceOnUse">
<stop stop-color="#005400"/>
<stop offset="1" stop-color="#8BC34A"/>
</linearGradient>
<linearGradient id="paint2_linear" x1="0.920044" y1="0.298492" x2="194.688" y2="92.0831" gradientUnits="userSpaceOnUse">
<stop stop-color="#005400"/>
<stop offset="1" stop-color="#8BC34A"/>
</linearGradient>
<linearGradient id="paint3_linear" x1="0.920044" y1="0.298492" x2="194.688" y2="92.0831" gradientUnits="userSpaceOnUse">
<stop stop-color="#005400"/>
<stop offset="1" stop-color="#8BC34A"/>
</linearGradient>
<linearGradient id="paint4_linear" x1="0.920044" y1="0.298492" x2="194.688" y2="92.0831" gradientUnits="userSpaceOnUse">
<stop stop-color="#005400"/>
<stop offset="1" stop-color="#8BC34A"/>
</linearGradient>
<linearGradient id="paint5_linear" x1="0.920044" y1="0.298492" x2="194.688" y2="92.0831" gradientUnits="userSpaceOnUse">
<stop stop-color="#005400"/>
<stop offset="1" stop-color="#8BC34A"/>
</linearGradient>
<linearGradient id="paint6_linear" x1="0.920044" y1="0.298492" x2="194.688" y2="92.0831" gradientUnits="userSpaceOnUse">
<stop stop-color="#005400"/>
<stop offset="1" stop-color="#8BC34A"/>
</linearGradient>
<linearGradient id="paint7_linear" x1="0.920044" y1="0.298492" x2="194.688" y2="92.0831" gradientUnits="userSpaceOnUse">
<stop stop-color="#005400"/>
<stop offset="1" stop-color="#8BC34A"/>
</linearGradient>
<linearGradient id="paint8_linear" x1="0.920044" y1="0.298492" x2="194.688" y2="92.0831" gradientUnits="userSpaceOnUse">
<stop stop-color="#005400"/>
<stop offset="1" stop-color="#8BC34A"/>
</linearGradient>
<linearGradient id="paint9_linear" x1="0.920044" y1="0.298492" x2="194.688" y2="92.0831" gradientUnits="userSpaceOnUse">
<stop stop-color="#005400"/>
<stop offset="1" stop-color="#8BC34A"/>
</linearGradient>
<linearGradient id="paint10_linear" x1="0.920044" y1="0.298492" x2="194.688" y2="92.0831" gradientUnits="userSpaceOnUse">
<stop stop-color="#005400"/>
<stop offset="1" stop-color="#8BC34A"/>
</linearGradient>
<linearGradient id="paint11_linear" x1="0.920044" y1="0.298492" x2="194.688" y2="92.0831" gradientUnits="userSpaceOnUse">
<stop stop-color="#005400"/>
<stop offset="1" stop-color="#8BC34A"/>
</linearGradient>
<linearGradient id="paint12_linear" x1="0.920044" y1="0.298492" x2="194.688" y2="92.0831" gradientUnits="userSpaceOnUse">
<stop stop-color="#005400"/>
<stop offset="1" stop-color="#8BC34A"/>
</linearGradient>
<linearGradient id="paint13_linear" x1="0.920044" y1="0.298492" x2="194.688" y2="92.0831" gradientUnits="userSpaceOnUse">
<stop stop-color="#005400"/>
<stop offset="1" stop-color="#8BC34A"/>
</linearGradient>
<linearGradient id="paint14_linear" x1="0.920044" y1="0.298492" x2="194.688" y2="92.0831" gradientUnits="userSpaceOnUse">
<stop stop-color="#005400"/>
<stop offset="1" stop-color="#8BC34A"/>
</linearGradient>
<linearGradient id="paint15_linear" x1="0.920044" y1="0.298492" x2="194.688" y2="92.0831" gradientUnits="userSpaceOnUse">
<stop stop-color="#005400"/>
<stop offset="1" stop-color="#8BC34A"/>
</linearGradient>
<linearGradient id="paint16_linear" x1="0.920044" y1="0.298492" x2="194.688" y2="92.0831" gradientUnits="userSpaceOnUse">
<stop stop-color="#005400"/>
<stop offset="1" stop-color="#8BC34A"/>
</linearGradient>
<linearGradient id="paint17_linear" x1="0.920044" y1="0.298492" x2="194.688" y2="92.0831" gradientUnits="userSpaceOnUse">
<stop stop-color="#005400"/>
<stop offset="1" stop-color="#8BC34A"/>
</linearGradient>
<linearGradient id="paint18_linear" x1="0.920044" y1="0.298492" x2="194.688" y2="92.0831" gradientUnits="userSpaceOnUse">
<stop stop-color="#005400"/>
<stop offset="1" stop-color="#8BC34A"/>
</linearGradient>
<linearGradient id="paint19_linear" x1="0.920044" y1="0.298492" x2="194.688" y2="92.0831" gradientUnits="userSpaceOnUse">
<stop stop-color="#005400"/>
<stop offset="1" stop-color="#8BC34A"/>
</linearGradient>
<linearGradient id="paint20_linear" x1="0.920044" y1="0.298492" x2="194.688" y2="92.0831" gradientUnits="userSpaceOnUse">
<stop stop-color="#005400"/>
<stop offset="1" stop-color="#8BC34A"/>
</linearGradient>
<linearGradient id="paint21_linear" x1="0.920044" y1="0.298492" x2="194.688" y2="92.0831" gradientUnits="userSpaceOnUse">
<stop stop-color="#005400"/>
<stop offset="1" stop-color="#8BC34A"/>
</linearGradient>
<linearGradient id="paint22_linear" x1="0.920044" y1="0.298492" x2="194.688" y2="92.0831" gradientUnits="userSpaceOnUse">
<stop stop-color="#005400"/>
<stop offset="1" stop-color="#8BC34A"/>
</linearGradient>
<linearGradient id="paint23_linear" x1="0.920044" y1="0.298492" x2="194.688" y2="92.0831" gradientUnits="userSpaceOnUse">
<stop stop-color="#005400"/>
<stop offset="1" stop-color="#8BC34A"/>
</linearGradient>
<linearGradient id="paint24_linear" x1="0.920044" y1="0.298492" x2="194.688" y2="92.0831" gradientUnits="userSpaceOnUse">
<stop stop-color="#005400"/>
<stop offset="1" stop-color="#8BC34A"/>
</linearGradient>
<linearGradient id="paint25_linear" x1="0.920044" y1="0.298492" x2="194.688" y2="92.0831" gradientUnits="userSpaceOnUse">
<stop stop-color="#005400"/>
<stop offset="1" stop-color="#8BC34A"/>
</linearGradient>
<linearGradient id="paint26_linear" x1="0.920044" y1="0.298492" x2="194.688" y2="92.0831" gradientUnits="userSpaceOnUse">
<stop stop-color="#005400"/>
<stop offset="1" stop-color="#8BC34A"/>
</linearGradient>
<linearGradient id="paint27_linear" x1="0.920044" y1="0.298492" x2="194.688" y2="92.0831" gradientUnits="userSpaceOnUse">
<stop stop-color="#005400"/>
<stop offset="1" stop-color="#8BC34A"/>
</linearGradient>
</defs>
</svg>
