<svg width="40" height="10" xmlns="http://www.w3.org/2000/svg">

 <g>
  <title>background</title>
  <rect fill="none" id="canvas_background" height="12" width="42" y="-1" x="-1"/>
 </g>
 <g>
  <title>Layer 1</title>
  <path id="svg_1" d="m35.486172,0.314435a0.482565,0.482565 0 0 0 -0.690815,0a0.489256,0.489256 0 0 0 0,0.685795l3.501736,3.510933l-37.774728,0a0.481729,0.481729 0 0 0 -0.483401,0.485074c0,0.270972 0.214102,0.492601 0.483401,0.492601l37.774728,0l-3.501736,3.504242a0.498455,0.498455 0 0 0 0,0.692484a0.482565,0.482565 0 0 0 0.690815,0l4.329704,-4.342248a0.477547,0.477547 0 0 0 0,-0.685795l-4.329704,-4.343085z" fill-rule="nonzero" fill="#FFF"/>
 </g>
</svg>