<svg width="16" height="16" viewBox="0 0 16 16" fill="none" xmlns="http://www.w3.org/2000/svg">
<path d="M15.3238 5.23749C15.8387 13.0453 7.61226 11.9733 7.61226 11.9733C13.2619 12.0532 15.6444 1.34637 6.47778 0.223059C6.95121 0.134257 7.43154 0.0887401 7.91295 0.0869141C11.3133 0.0869141 14.2042 2.23209 15.3238 5.23749Z" fill="#56676E"/>
<path d="M11.8115 8.45437C11.8115 8.45437 13.7545 0.277766 5.00875 0.642984C2.07606 1.79944 0 4.64786 0 7.98608C0.00270531 8.34555 0.0298937 8.70435 0.0813623 9.06023C1.92192 -0.190591 12.4077 2.80541 11.8116 8.45444L11.8115 8.45437Z" fill="#56676E"/>
<path d="M0.524635 10.865C0.398364 1.92618 8.61048 4.21555 8.61048 4.21555C2.97382 3.39496 -0.528544 13.6802 8.68555 15.8739C8.42936 15.8991 8.16951 15.9131 7.90642 15.9131C7.89966 15.9131 7.89303 15.9126 7.88647 15.912C7.87991 15.9116 7.87328 15.911 7.86665 15.911C7.51767 15.907 7.16936 15.8799 6.82389 15.8301C6.72213 15.8164 6.62062 15.8009 6.51941 15.7836C6.18652 15.7275 5.85755 15.6497 5.53467 15.5512C5.4968 15.5393 5.46041 15.5253 5.42396 15.5113L5.42355 15.511L5.42288 15.5108C5.39488 15.5 5.36694 15.4891 5.33834 15.4795C5.06897 15.3871 4.80485 15.2801 4.54717 15.1589L4.48778 15.131C4.41877 15.0991 4.35033 15.066 4.28252 15.0316C3.98306 14.8791 3.69368 14.7076 3.41614 14.5181C3.39416 14.5029 3.37286 14.4865 3.35162 14.4701L3.35054 14.4694L3.3502 14.4691C3.33241 14.4556 3.31456 14.4418 3.29623 14.4288C3.03389 14.2407 2.78327 14.0369 2.54577 13.8183C2.53191 13.8054 2.51784 13.7928 2.50384 13.7802L2.50141 13.778L2.5012 13.7779L2.50005 13.7768C2.47943 13.7583 2.4588 13.7398 2.43851 13.7207C1.59909 12.9205 0.945735 11.9456 0.524635 10.865V10.865Z" fill="#56676E"/>
<path d="M10.6694 15.3843C1.84913 15.3139 4.04977 7.21997 4.04977 7.21997C3.15012 12.8323 13.4591 16.4191 15.7893 7.2617C15.8109 7.50092 15.826 7.74237 15.826 7.98713C15.826 8.01702 15.824 8.04644 15.8218 8.07573V8.07674C15.8198 8.10292 15.818 8.12909 15.8175 8.15554C15.8128 8.37041 15.8064 8.58487 15.7851 8.79514C15.476 11.8348 13.4369 14.3562 10.6693 15.3846L10.6694 15.3843Z" fill="#56676E"/>
<path d="M10.129 7.98696C10.129 8.42454 9.99896 8.85245 9.75542 9.21632C9.51166 9.58037 9.16545 9.86398 8.76054 10.0313C8.35543 10.1987 7.90985 10.2425 7.47991 10.1571C7.05008 10.0717 6.65517 9.86091 6.34503 9.5513C6.0351 9.24211 5.82401 8.84782 5.73855 8.41845C5.65309 7.98909 5.69712 7.54402 5.86504 7.13972C6.0331 6.7353 6.3173 6.38978 6.68171 6.14687C7.04645 5.90383 7.475 5.77423 7.9133 5.77441C8.50083 5.77446 9.06434 6.0076 9.48015 6.42268C9.68583 6.62797 9.84902 6.87181 9.96037 7.14024C10.0717 7.40867 10.1291 7.69642 10.1291 7.98702L10.129 7.98696Z" fill="#4E4F50"/>
</svg>
